:SAMPLES-PER-SECOND 24
:FULLY-SPECIFIED
:DEGREES
169
root  8.81702 39.1626 20.3151 6.30386 -61.7412 1.95842
RightUpLeg  -14.2684 -17.8988 2.50788
RightLeg  24.4853 -22.4273 -10.9322
RightFoot  -15.6491 -0.101797 0.0837337
RightToes  -2.08645e-008 3.77894e-005 6.81332e-007
Spine  -3.288 0.379191 1.62219
Spine1  8.13126 0.361863 -0.610967
HEad  -41.8895 34.1601 -25.814
LeftShoulder1  6.5838 -12.4967 -35.1256
LeftArm  5.50504 21.7763 -16.8865
LeftForeArm  151.007 -72.5073 -146.557
LeftHand  -0.372783 -2.16718 5.93374
RightShoulder  3.8274 6.56654 32.1201
RightArm  12.0358 -23.754 29.4898
RightForeArm  107.317 80.4888 94.1778
RightHand  -0.396151 7.55619 -3.91212
LeftUpLeg  -4.35493 11.0051 2.11529
LeftLeg  14.3679 27.2669 5.04406
LeftFoot  -12.3786 -0.0422735 -12.4264
LeftToes  1.24767e-006 1.47042e-008 1.32732e-009
170
root  8.43931 39.0293 20.4989 8.59683 -68.156 -1.87535
RightUpLeg  -12.4008 -14.5785 3.12253
RightLeg  24.0135 -19.1327 -9.27201
RightFoot  -16.5209 -0.110257 0.0333282
RightToes  -2.08645e-008 3.77894e-005 6.81332e-007
Spine  -2.42175 0.449165 3.66099
Spine1  7.86241 0.166064 -0.090296
HEad  -41.8893 39.6346 -27.4356
LeftShoulder1  6.78317 -12.6417 -35.9723
LeftArm  2.76594 18.8177 -18.8538
LeftForeArm  145.496 -74.3001 -141.653
LeftHand  -0.497541 -1.6902 8.33543
RightShoulder  3.88912 6.62194 32.5232
RightArm  11.8795 -21.3121 28.2996
RightForeArm  97.1882 80.4669 83.7745
RightHand  -0.258165 7.5393 -2.67901
LeftUpLeg  -6.88549 20.1427 3.02443
LeftLeg  24.9504 23.6433 11.82
LeftFoot  -11.2317 0.0794316 -12.9606
LeftToes  1.24767e-006 1.47042e-008 1.32732e-009
171
root  7.99892 39.0369 20.6883 10.9956 -74.6081 -5.18165
RightUpLeg  -10.4367 -12.4679 3.02933
RightLeg  22.0356 -15.9804 -7.18838
RightFoot  -16.6721 -0.170589 -1.2484
RightToes  -2.08645e-008 3.77894e-005 6.81332e-007
Spine  -2.2333 0.829202 4.02107
Spine1  8.21072 0.326825 0.699325
HEad  -42.0075 44.7372 -28.2423
LeftShoulder1  7.30822 -13.1 -37.913
LeftArm  2.08134 13.9967 -19.6613
LeftForeArm  139.816 -76.0569 -135.501
LeftHand  -0.590317 -1.46607 10.164
RightShoulder  3.98991 6.69364 33.2416
RightArm  9.87542 -20.5077 27.8316
RightForeArm  88.402 80.1918 75.227
RightHand  -0.471448 6.90722 -4.79035
LeftUpLeg  -10.6261 21.4565 3.59098
LeftLeg  37.1664 23.7048 18.3781
LeftFoot  -6.08502 0.379045 -7.58255
LeftToes  1.24767e-006 1.47042e-008 1.32732e-009
172
root  7.51952 39.125 20.9681 12.8107 -81.1515 -7.22259
RightUpLeg  -9.25651 -7.00592 2.09045
RightLeg  20.8029 -14.6735 -6.26797
RightFoot  -16.1364 -0.143075 -0.79785
RightToes  -2.08645e-008 3.77894e-005 6.81332e-007
Spine  -2.27194 0.966655 4.43795
Spine1  8.32653 0.619309 0.00347086
HEad  -43.3027 49.8269 -29.3996
LeftShoulder1  7.54535 -13.3141 -38.7289
LeftArm  3.18582 9.91152 -21.1902
LeftForeArm  137.754 -76.7663 -132.53
LeftHand  -0.599231 -1.20837 10.6886
RightShoulder  4.05258 6.73481 33.6946
RightArm  7.70344 -21.3339 28.4675
RightForeArm  85.8212 80.0652 72.6992
RightHand  -0.523219 6.77017 -5.33122
LeftUpLeg  -14.7347 20.9877 3.10183
LeftLeg  44.4244 17.5075 17.8148
LeftFoot  -2.97168 0.334545 -4.15217
LeftToes  1.24767e-006 1.47042e-008 1.32732e-009
173
root  7.02654 39.2392 21.417 58.8517 -86.9862 -53.2592
RightUpLeg  -8.29794 -1.1974 1.09663
RightLeg  19.456 -14.1852 -5.68027
RightFoot  -15.5185 -0.108103 -0.0847105
RightToes  -2.08645e-008 3.77894e-005 6.81332e-007
Spine  -1.40905 0.715143 5.37769
Spine1  7.39433 0.646411 -1.04892
HEad  -46.1437 54.5171 -32.5673
LeftShoulder1  7.40523 -13.1954 -38.2288
LeftArm  5.47963 7.59998 -24.7188
LeftForeArm  138.769 -76.7904 -132.669
LeftHand  -0.576057 -1.54774 9.80891
RightShoulder  4.04878 6.75505 33.5798
RightArm  7.30389 -22.7462 28.8585
RightForeArm  87.912 80.1648 75.6632
RightHand  -0.506512 6.67446 -5.21183
LeftUpLeg  -17.7894 17.3803 2.82385
LeftLeg  45.8394 10.48 11.7531
LeftFoot  -4.83841 0.39958 -6.61436
LeftToes  1.24767e-006 1.47042e-008 1.32732e-009
174
root  6.47738 39.3719 21.9912 167.405 -85.2147 -161.586
RightUpLeg  -7.33633 2.99851 -0.21778
RightLeg  16.8825 -11.7982 -4.31633
RightFoot  -14.3791 -0.0983347 -0.0395088
RightToes  -2.08645e-008 3.77894e-005 6.81332e-007
Spine  -0.528923 0.673439 6.02386
Spine1  6.52323 0.776726 -1.50521
HEad  -48.7451 57.6434 -36.0422
LeftShoulder1  7.25271 -13.0721 -37.6613
LeftArm  9.07409 5.3027 -28.8329
LeftForeArm  139.902 -76.8791 -132.599
LeftHand  -0.543858 -2.28187 8.43485
RightShoulder  3.97807 6.73698 32.9601
RightArm  7.53117 -24.0843 28.5928
RightForeArm  90.1944 80.241 79.0825
RightHand  -0.717582 6.41853 -7.37494
LeftUpLeg  -19.3573 11.0022 3.54949
LeftLeg  43.2047 8.65066 9.00336
LeftFoot  -7.47387 0.341768 -8.78774
LeftToes  1.24767e-006 1.47042e-008 1.32732e-009
175
root  5.8731 39.4618 22.6069 179.244 -77.6349 -173.054
RightUpLeg  -6.91491 6.51548 -1.66801
RightLeg  14.3936 -7.73873 -3.5253
RightFoot  -13.3392 -0.0796248 0.595789
RightToes  -2.08645e-008 3.77894e-005 6.81332e-007
Spine  0.151701 1.06363 6.23677
Spine1  5.90539 1.38324 -2.1624
HEad  -47.9734 58.6731 -35.2056
LeftShoulder1  7.07489 -12.9307 -36.9791
LeftArm  14.0205 1.95063 -31.7957
LeftForeArm  141.29 -76.9007 -132.845
LeftHand  -0.519578 -2.63147 7.7389
RightShoulder  3.9075 6.71016 32.3702
RightArm  7.65855 -24.7239 27.9253
RightForeArm  90.0686 80.2388 78.8272
RightHand  -0.767651 6.82419 -7.61972
LeftUpLeg  -19.5824 2.3773 5.73026
LeftLeg  38.3037 11.172 9.68683
LeftFoot  -9.30479 0.196715 -7.83584
LeftToes  1.24767e-006 1.47042e-008 1.32732e-009
176
root  5.23071 39.355 23.3169 -179.621 -68.6983 -174.075
RightUpLeg  -7.44426 10.5227 -2.72225
RightLeg  13.8973 -3.39129 -3.28646
RightFoot  -13.5836 -0.0696799 1.14309
RightToes  -2.08645e-008 3.77894e-005 6.81332e-007
Spine  1.39561 1.46059 6.74806
Spine1  5.31154 2.09408 -3.05004
HEad  -41.8204 56.0882 -27.2996
LeftShoulder1  6.84295 -12.7381 -36.0868
LeftArm  18.5733 -1.30781 -33.2849
LeftForeArm  144.028 -76.4648 -135.037
LeftHand  -0.503829 -3.04862 7.17172
RightShoulder  3.92476 6.75857 32.3573
RightArm  8.31519 -23.336 26.9103
RightForeArm  85.8552 80.0663 73.6855
RightHand  -0.662676 6.9386 -6.57026
LeftUpLeg  -18.5089 -7.35329 9.68098
LeftLeg  32.9905 10.7758 7.82969
LeftFoot  -12.771 -0.0198822 -7.50061
LeftToes  1.24767e-006 1.47042e-008 1.32732e-009
177
root  4.51489 39.1004 24.0899 -179.589 -59.6597 -174.102
RightUpLeg  -9.24253 16.9906 -4.54563
RightLeg  15.1531 -0.108709 -2.01452
RightFoot  -13.9855 -0.0419472 2.34156
RightToes  -2.08645e-008 3.77894e-005 6.81332e-007
Spine  2.48005 1.23902 5.46425
Spine1  5.39343 1.79489 -2.32595
HEad  -32.6408 46.8592 -15.4148
LeftShoulder1  6.7672 -12.6936 -35.7439
LeftArm  21.2853 -2.84075 -33.0279
LeftForeArm  147.565 -75.5729 -138.609
LeftHand  -0.461724 -3.61455 6.21363
RightShoulder  3.91856 6.75003 32.3287
RightArm  8.44617 -20.7974 27.2834
RightForeArm  81.2526 79.777 67.8887
RightHand  -0.652669 7.27899 -6.32837
LeftUpLeg  -17.0271 -18.9905 13.8081
LeftLeg  29.2972 4.89101 3.33698
LeftFoot  -16.8959 -0.321516 -8.65217
LeftToes  1.24767e-006 1.47042e-008 1.32732e-009
178
root  3.72512 38.6963 24.8979 -179.335 -51.6247 -173.711
RightUpLeg  -13.1323 25.4182 -7.54058
RightLeg  17.9189 -0.611146 -0.682926
RightFoot  -15.0991 0.0599701 4.9467
RightToes  -2.08645e-008 3.77894e-005 6.81332e-007
Spine  2.47786 0.195681 1.35312
Spine1  6.32935 -0.191308 1.84511
HEad  -25.7921 30.6442 -5.13895
LeftShoulder1  6.82892 -12.79 -35.8718
LeftArm  22.7739 -2.40103 -30.77
LeftForeArm  150.265 -74.5251 -141.966
LeftHand  -0.423906 -3.70742 5.67177
RightShoulder  3.87769 6.66063 32.263
RightArm  6.94575 -19.9498 29.5319
RightForeArm  82.8096 79.8676 68.5355
RightHand  -0.744507 7.54045 -7.0272
LeftUpLeg  -16.8428 -31.6961 17.4359
LeftLeg  29.2326 -3.23196 -1.61166
LeftFoot  -20.7695 -0.620339 -9.01541
LeftToes  1.24767e-006 1.47042e-008 1.32732e-009
